# xmcd
#
# Track frame offsets:
#	182
#	9907
#	26762
#	42700
#	55997
#	70695
#	85712
#	99890
#	111725
#	129705
#
# Disc length: 1908 seconds
#
# Revision: 2
# Processed by: cddbd v1.5.2PL0 Copyright (c) Steve Scherf et al.
# Submitted via: dBpowerAMP V4.0
#
DISCID=8307720a
DTITLE=TheNormaltownFlyers - CountryBoy'sDream;Mercury9501;31451-22472
DYEAR=1992
DGENRE=country
TTITLE0=CountryBoy'sDream(BrianBurke,GregVeale,CalHale;1992,TheNormaltownFlyers)
TTITLE1=ThisWorldDoesn'tTurnForMe(BrianBurke;1992,TheNormaltownFlyers)
TTITLE2=JumpBack,Baby(BrianBurke;1992,TheNormaltownFlyers)
TTITLE3=I'mSatisfied(BrianBurke;1992,TheNormaltownFlyers)
TTITLE4=KindaHardOnMe(BrianBurke;1992,TheNormaltownFlyers)
TTITLE5=It'sNotWorkingOut(BrianBurke;1992,TheNormaltownFlyers)
TTITLE6=HasToBeYou(BrianBurke;1992,TheNormaltownFlyers)
TTITLE7=IfThisWasAMovie(BrianBurkeGregVeale,CalHale;1992,TheNormaltownFlyers)
TTITLE8=SheLooksLikeTrouble(BrianBurke,GregVeale,CalHale;1992,TheNormaltownFlyers)
TTITLE9=AnymoreThanIDo(BrianBurke;1992,TheNormaltownFlyers)
EXTD=MillenniumMusicProjectFormat
EXTT0=
EXTT1=
EXTT2=
EXTT3=
EXTT4=
EXTT5=
EXTT6=
EXTT7=
EXTT8=
EXTT9=
PLAYORDER=
